<svg xmlns="http://www.w3.org/2000/svg" width="12" height="11" viewBox="0 0 12 11">
    <g fill="none" fill-rule="evenodd">
        <g fill="#FF2A44" fill-rule="nonzero">
            <g>
                <path d="M11.048 15.045C10.427 14.37 9.574 14 8.648 14c-.693 0-1.327.219-1.886.65-.282.219-.537.486-.762.797-.225-.311-.48-.578-.762-.796C4.679 14.219 4.045 14 3.352 14c-.926 0-1.779.371-2.4 1.045C.338 15.71 0 16.62 0 17.606c0 1.015.378 1.944 1.19 2.924.727.876 1.77 1.766 2.98 2.796.412.352.88.751 1.366 1.176.128.112.293.174.464.174.17 0 .336-.062.464-.174.486-.425.954-.824 1.367-1.176 1.209-1.03 2.253-1.92 2.979-2.796.812-.98 1.19-1.909 1.19-2.924 0-.986-.338-1.895-.952-2.561z" transform="translate(-180.000000, -2685.000000) translate(180.000000, 2671.000000)"/>
            </g>
        </g>
    </g>
</svg>
