<svg xmlns="http://www.w3.org/2000/svg" width="32" height="32" viewBox="0 0 32 32">
    <g fill="none" fill-rule="evenodd" stroke-linecap="round" stroke-linejoin="round">
        <g stroke="#010202" stroke-width=".8">
            <g>
                <g>
                    <g>
                        <g>
                            <path d="M0.5 11.626L21.834 11.626 21.834 0.5 0.5 0.5z" transform="translate(-611.000000, -1503.000000) translate(420.000000, 1380.000000) translate(0.000000, 87.000000) translate(180.000000, 25.000000) translate(11.000000, 11.000000) translate(5.000000, 7.000000)"/>
                            <path d="M11.167 9.684c1.5 0 2.715-1.622 2.715-3.62 0-2-1.215-3.622-2.715-3.622-1.5 0-2.716 1.621-2.716 3.621s1.216 3.62 2.716 3.62zM4.385 11.136c0-1.85-1.499-3.349-3.348-3.349M17.948 11.136c0-1.85 1.5-3.349 3.349-3.349M4.385.99c0 1.85-1.499 3.35-3.348 3.35M17.948.99c0 1.85 1.5 3.35 3.349 3.35M5.729 6.765c.388 0 .702-.315.702-.702 0-.388-.314-.702-.702-.702-.388 0-.702.314-.702.702 0 .387.314.702.702.702zM16.595 6.765c.388 0 .702-.315.702-.702 0-.388-.314-.702-.702-.702-.388 0-.702.314-.702.702 0 .387.314.702.702.702zM.576 14.218L21.758 14.218M.576 16.72L21.758 16.72" transform="translate(-611.000000, -1503.000000) translate(420.000000, 1380.000000) translate(0.000000, 87.000000) translate(180.000000, 25.000000) translate(11.000000, 11.000000) translate(5.000000, 7.000000)"/>
                        </g>
                    </g>
                </g>
            </g>
        </g>
    </g>
</svg>
