<svg xmlns="http://www.w3.org/2000/svg" width="24" height="24" viewBox="0 0 24 24">
    <g fill="none" fill-rule="evenodd" stroke-linecap="round">
        <g stroke="#000" stroke-width="2">
            <g>
                <g>
                    <g>
                        <g>
                            <path d="M7.875 -0.75L7.875 14.25" transform="translate(-406.000000, -181.000000) translate(80.000000, 80.000000) translate(0.000000, 73.000000) translate(326.000000, 28.000000) translate(4.125000, 5.250000) translate(7.875000, 6.750000) scale(-1, 1) rotate(90.000000) translate(-7.875000, -6.750000)"/>
                            <path d="M10.875 8.25L10.875 17.25" transform="translate(-406.000000, -181.000000) translate(80.000000, 80.000000) translate(0.000000, 73.000000) translate(326.000000, 28.000000) translate(4.125000, 5.250000) translate(10.875000, 12.750000) scale(-1, 1) rotate(90.000000) translate(-10.875000, -12.750000)"/>
                            <path d="M7.875 -6.75L7.875 8.25" transform="translate(-406.000000, -181.000000) translate(80.000000, 80.000000) translate(0.000000, 73.000000) translate(326.000000, 28.000000) translate(4.125000, 5.250000) translate(7.875000, 0.750000) scale(-1, 1) rotate(90.000000) translate(-7.875000, -0.750000)"/>
                        </g>
                    </g>
                </g>
            </g>
        </g>
    </g>
</svg>
