<svg xmlns="http://www.w3.org/2000/svg" width="30" height="30" viewBox="0 0 30 30">
    <g fill="none" fill-rule="evenodd" stroke-linecap="round">
        <g stroke="#000" stroke-width="1.5">
            <g>
                <g>
                    <g>
                        <g>
                            <path d="M18.75 9.375c0 5.177-4.198 9.375-9.375 9.375S0 14.552 0 9.375 4.198 0 9.375 0s9.375 4.198 9.375 9.375z" transform="translate(-1055.000000, -186.000000) translate(1040.000000, 115.000000) translate(0.000000, 58.000000) translate(15.000000, 13.000000) translate(5.625000, 5.625000)"/>
                            <path d="M5.916 5.916c-.885.886-1.432 2.108-1.432 3.459 0 2.701 2.19 4.891 4.89 4.891 2.702 0 4.892-2.19 4.892-4.891 0-1.35-.547-2.573-1.431-3.458M9.375 4.076L9.375 8.967" transform="translate(-1055.000000, -186.000000) translate(1040.000000, 115.000000) translate(0.000000, 58.000000) translate(15.000000, 13.000000) translate(5.625000, 5.625000)"/>
                        </g>
                    </g>
                </g>
            </g>
        </g>
    </g>
</svg>
