<svg xmlns="http://www.w3.org/2000/svg" xmlns:xlink="http://www.w3.org/1999/xlink" width="32" height="32" viewBox="0 0 32 32">
    <defs>
        <path id="76caxxvpwa" d="M0.02 0.009L4.337 0.009 4.337 6.874 0.02 6.874z"/>
        <path id="66p2gax7sc" d="M0 0.02L19.89 0.02 19.89 22.745 0 22.745z"/>
    </defs>
    <g fill="none" fill-rule="evenodd">
        <g>
            <g>
                <g>
                    <g>
                        <g>
                            <path fill="#000" d="M21.715 8.668c-.19 0-.344-.153-.344-.343V6.704h-.002c-.19 0-.344-.154-.344-.344 0-.19.154-.344.344-.344h.346c.19 0 .344.154.344.344v1.965c0 .19-.154.343-.344.343M19.525 8.667c-.19 0-.343-.154-.343-.344V6.36c0-.19.154-.344.343-.344h.307c.19 0 .344.154.344.344 0 .177-.134.323-.307.342v1.621c0 .19-.154.344-.344.344" transform="translate(-431.000000, -1168.000000) translate(420.000000, 1025.000000) translate(0.000000, 87.000000) translate(0.000000, 45.000000) translate(11.000000, 11.000000) translate(4.500000, 3.000000)"/>
                            <g transform="translate(-431.000000, -1168.000000) translate(420.000000, 1025.000000) translate(0.000000, 87.000000) translate(0.000000, 45.000000) translate(11.000000, 11.000000) translate(4.500000, 3.000000) translate(18.421819, 0.000000)">
                                <mask id="ovpqnsktjb" fill="#fff">
                                    <use xlink:href="#76caxxvpwa"/>
                                </mask>
                                <path fill="#000" d="M2.928 1.085c-.836.651-2.22 1.98-2.22 3.63 0 .812.66 1.472 1.47 1.472.812 0 1.472-.66 1.472-1.472 0-.274-.111-.548-.252-.896-.248-.613-.573-1.418-.47-2.734m-.75 5.79c-1.19 0-2.158-.97-2.158-2.16C.02 1.968 3.068.133 3.198.057c.116-.069.262-.063.372.014.11.077.166.212.141.344-.298 1.606.047 2.46.325 3.147.155.383.301.746.301 1.153 0 1.19-.968 2.16-2.158 2.16" mask="url(#ovpqnsktjb)"/>
                            </g>
                            <g transform="translate(-431.000000, -1168.000000) translate(420.000000, 1025.000000) translate(0.000000, 87.000000) translate(0.000000, 45.000000) translate(11.000000, 11.000000) translate(4.500000, 3.000000) translate(-0.000000, 2.014119)">
                                <mask id="7iomlpcfcd" fill="#fff">
                                    <use xlink:href="#66p2gax7sc"/>
                                </mask>
                                <path fill="#000" d="M13.66 22.745c-.85 0-1.736-.118-2.643-.356-2.832-.744-5.536-2.578-7.612-5.165C1.328 14.636.122 11.6.009 8.674c-.115-2.965.902-5.465 2.864-7.04C3.967.758 5.473.187 7.113.029c.493-.047.987.117 1.354.451.366.333.576.806.576 1.3 0 3.264.988 3.75 1.733 3.832.616.067 1.252-.155 1.836-.642.788-.657 1.78-.965 2.792-.866.991.096 1.882.574 2.51 1.346l.062.078c.557.694 1.058 1.43 1.49 2.19.095.165.037.375-.128.47-.165.093-.375.036-.469-.13-.414-.728-.895-1.434-1.429-2.1l-.061-.075c-.51-.627-1.235-1.016-2.041-1.095-.827-.08-1.64.172-2.286.71-.731.61-1.545.885-2.351.797-.873-.095-1.51-.604-1.893-1.511-.305-.723-.453-1.706-.453-3.005 0-.304-.124-.585-.35-.79C7.78.784 7.479.684 7.178.713 5.67.858 4.294 1.376 3.303 2.17c-3.721 2.987-3.435 9.547.638 14.622 4.074 5.075 10.416 6.774 14.138 3.787.449-.36.849-.782 1.189-1.251.11-.154.326-.188.48-.077.154.111.188.326.077.48-.376.52-.819.985-1.316 1.384-1.342 1.077-3.01 1.629-4.85 1.629" mask="url(#7iomlpcfcd)"/>
                            </g>
                            <path fill="#000" d="M20.05 8.117c-.273.262-.868 1.493-.616 7.24.16 3.647.588 7.546.765 9.053.023.199.192.349.393.349.2 0 .369-.15.393-.348.17-1.396.582-5.023.76-8.555.251-5.025-.105-6.993-.487-7.739H20.05zm.542 17.33c-.55 0-1.012-.412-1.076-.957-.178-1.515-.608-5.433-.769-9.103-.28-6.388.445-7.574 1.015-7.91.053-.031.113-.047.174-.047h1.519c.114 0 .221.056.285.151.694 1.03.92 3.749.691 8.31-.178 3.553-.593 7.2-.763 8.603-.066.543-.528.953-1.076.953zM14.348 19.169c-.64 0-1.16.52-1.16 1.16 0 .64.52 1.16 1.16 1.16.64 0 1.16-.52 1.16-1.16 0-.64-.52-1.16-1.16-1.16m0 3.009c-1.019 0-1.848-.83-1.848-1.849 0-1.019.83-1.848 1.848-1.848 1.02 0 1.849.83 1.849 1.848 0 1.02-.83 1.849-1.849 1.849M9.108 17.29c-.64 0-1.16.52-1.16 1.16 0 .64.52 1.161 1.16 1.161.64 0 1.16-.52 1.16-1.16 0-.64-.52-1.16-1.16-1.16m0 3.008c-1.019 0-1.848-.83-1.848-1.848 0-1.02.83-1.849 1.848-1.849 1.02 0 1.849.83 1.849 1.849 0 1.019-.83 1.848-1.849 1.848M5.507 12.98c-.64 0-1.16.52-1.16 1.16 0 .64.52 1.16 1.16 1.16.64 0 1.16-.52 1.16-1.16 0-.64-.52-1.16-1.16-1.16m0 3.008c-1.019 0-1.848-.829-1.848-1.848 0-1.02.83-1.848 1.848-1.848 1.02 0 1.849.829 1.849 1.848 0 1.019-.83 1.848-1.849 1.848M4.742 7.375c-.64 0-1.16.52-1.16 1.16 0 .64.52 1.161 1.16 1.161.64 0 1.16-.52 1.16-1.16 0-.64-.52-1.161-1.16-1.161m0 3.009c-1.02 0-1.849-.83-1.849-1.848 0-1.02.83-1.849 1.849-1.849 1.019 0 1.848.83 1.848 1.849 0 1.019-.83 1.848-1.848 1.848M14.838 9.685c-.138 0-.27.024-.396.071-.815.307-1.12 1.506-.68 2.672.362.96 1.135 1.63 1.88 1.63.137 0 .27-.025.395-.072.376-.142.658-.484.793-.965.147-.518.106-1.124-.113-1.707-.362-.959-1.135-1.629-1.88-1.629m.804 5.06c-1.04 0-2.054-.833-2.522-2.074-.574-1.521-.09-3.117 1.08-3.558.203-.077.418-.116.639-.116 1.04 0 2.054.834 2.522 2.074.271.72.318 1.478.132 2.137-.196.696-.627 1.2-1.212 1.422-.203.076-.418.115-.639.115" transform="translate(-431.000000, -1168.000000) translate(420.000000, 1025.000000) translate(0.000000, 87.000000) translate(0.000000, 45.000000) translate(11.000000, 11.000000) translate(4.500000, 3.000000)"/>
                        </g>
                    </g>
                </g>
            </g>
        </g>
    </g>
</svg>
