<svg xmlns="http://www.w3.org/2000/svg" width="32" height="32" viewBox="0 0 32 32">
    <g fill="none" fill-rule="evenodd" stroke-linecap="round" stroke-linejoin="round">
        <g stroke="#010202" stroke-width=".8">
            <g>
                <g>
                    <g>
                        <g>
                            <path d="M10.22 3.35c-.358 2.178-2.077 3.897-4.255 4.256M10.402 12.159c.367-2.154 2.067-3.855 4.222-4.222M10.234 12.036L6.029 7.83c-.42-.42-1.106-.42-1.526 0L3.4 8.934c-.42.42-.42 1.107 0 1.526l4.205 4.205c.419.42 1.105.42 1.525 0l1.104-1.103c.42-.42.42-1.107 0-1.526zM17.264 5.005L13.06.8c-.42-.42-1.107-.42-1.527 0l-1.102 1.103c-.42.42-.42 1.107 0 1.527l4.204 4.204c.42.42 1.107.42 1.527 0l1.102-1.103c.42-.42.42-1.106 0-1.526z" transform="translate(-431.000000, -1503.000000) translate(420.000000, 1380.000000) translate(0.000000, 87.000000) translate(0.000000, 25.000000) translate(11.000000, 11.000000) translate(5.000000, 6.000000)"/>
                            <path d="M11.412 10.541l7.616 8c1.07 1.123 3.17-1.082 2.046-2.152l-7.946-7.564M1.69 18.059L12.156 18.059M.485 20.218L13.683 20.218" transform="translate(-431.000000, -1503.000000) translate(420.000000, 1380.000000) translate(0.000000, 87.000000) translate(0.000000, 25.000000) translate(11.000000, 11.000000) translate(5.000000, 6.000000)"/>
                        </g>
                    </g>
                </g>
            </g>
        </g>
    </g>
</svg>
