<svg xmlns="http://www.w3.org/2000/svg" width="32" height="32" viewBox="0 0 32 32">
    <g fill="none" fill-rule="evenodd">
        <g fill="#000" stroke="#000" stroke-width=".1">
            <g>
                <g>
                    <g>
                        <g>
                            <path d="M16.549 25.23c-.025.019-.09.055-.166.004L13.37 23.18c-.123-.084-.265-.126-.407-.126-.141 0-.283.042-.406.126l-3.013 2.054c-.076.051-.141.015-.166-.003-.025-.018-.08-.07-.054-.157l1.022-3.5c.084-.287-.015-.59-.251-.773L7.21 18.57c-.072-.056-.058-.13-.049-.159.01-.029.042-.097.133-.1l3.644-.11c.299-.008.557-.196.658-.477l1.23-3.432c.031-.086.106-.096.136-.096h0c.031 0 .105.01.136.096l1.23 3.432c.102.281.36.469.659.478l3.644.11c.091.002.123.07.133.1.009.028.023.102-.05.158l-2.883 2.23c-.236.184-.335.487-.251.774l1.021 3.5c.026.088-.028.139-.053.157h0zm-.413-3.818c-.017-.057.002-.118.05-.154l2.883-2.23c.244-.19.34-.502.245-.795-.095-.294-.356-.49-.665-.499l-3.644-.11c-.059-.002-.111-.04-.131-.095l-1.23-3.432c-.105-.29-.372-.478-.68-.478h0c-.31 0-.576.187-.68.478l-1.23 3.432c-.02.056-.072.093-.132.095l-3.644.11c-.309.01-.57.205-.665.499-.096.293 0 .605.245.794l2.883 2.23c.047.037.067.098.05.155l-1.021 3.5c-.087.296.019.605.269.786.128.093.275.14.424.14.14 0 .282-.042.407-.127l3.012-2.053c.05-.034.114-.034.163 0l3.012 2.053c.255.174.582.169.831-.013.25-.181.356-.49.27-.786l-1.022-3.5z" transform="translate(-611.000000, -1168.000000) translate(420.000000, 1025.000000) translate(0.000000, 87.000000) translate(180.000000, 45.000000) translate(11.000000, 11.000000) translate(3.000000, 3.000000)"/>
                            <g>
                                <path d="M8.242 7.951c-.045-.153-.205-.241-.358-.196-.153.045-.241.205-.197.358l.317 1.083c.025.088-.03.14-.054.157-.025.018-.09.054-.166.003L5.544 7.83c-.247-.17-.567-.17-.813 0L2.49 9.355c-.077.052-.142.016-.167-.003-.024-.017-.08-.069-.053-.157l.76-2.602c.083-.287-.016-.59-.252-.773L.635 4.16c-.073-.055-.059-.129-.05-.158.01-.029.042-.097.134-.1l2.71-.081c.298-.01.557-.197.657-.478L5.001.792c.031-.086.106-.096.136-.096.03 0 .105.01.136.096l.915 2.552c.1.281.36.469.658.478l2.71.081c.091.003.123.071.132.1.01.03.024.103-.048.159-.127.097-.15.279-.052.405s.279.15.405.052c.244-.19.34-.5.245-.794-.095-.294-.356-.49-.665-.5l-2.71-.08c-.06-.003-.11-.04-.131-.096L5.817.597c-.104-.29-.371-.479-.68-.479-.308 0-.575.188-.68.479l-.914 2.552c-.02.056-.072.093-.132.095L.7 3.326c-.308.01-.57.205-.665.499-.095.293.001.605.245.794l2.144 1.659c.048.036.067.097.05.154l-.76 2.602c-.086.297.02.605.27.787.25.181.576.186.83.012l2.241-1.526c.05-.034.113-.034.162 0l2.24 1.526c.125.085.266.127.408.127.148 0 .296-.046.424-.14.25-.18.355-.49.268-.786l-.316-1.083z" transform="translate(-611.000000, -1168.000000) translate(420.000000, 1025.000000) translate(0.000000, 87.000000) translate(180.000000, 45.000000) translate(11.000000, 11.000000) translate(3.000000, 3.000000) translate(0.000000, 12.693489)"/>
                            </g>
                            <path d="M25.89 16.518c-.095-.294-.356-.49-.664-.499l-2.71-.081c-.06-.002-.111-.04-.131-.096l-.915-2.552c-.105-.29-.372-.478-.68-.478-.309 0-.576.188-.68.478l-.915 2.552c-.02.056-.072.094-.132.096l-2.709.081c-.309.01-.57.205-.665.499-.096.294 0 .605.245.794.126.098.307.075.405-.051.098-.127.075-.308-.052-.406-.072-.056-.058-.13-.049-.158.01-.03.042-.097.133-.1l2.71-.082c.299-.009.557-.196.658-.478l.915-2.552c.03-.086.105-.095.136-.095.03 0 .105.009.136.095l.915 2.552c.1.282.359.47.657.478l2.71.082c.092.003.124.07.133.1.01.029.024.102-.049.158l-2.144 1.659c-.237.183-.335.487-.251.774l.76 2.602c.025.088-.03.139-.054.157-.025.018-.09.054-.166.003l-2.24-1.527c-.248-.169-.567-.169-.814 0l-2.24 1.527c-.076.051-.141.015-.166-.003-.025-.018-.08-.07-.054-.157l.316-1.083c.045-.154-.043-.314-.196-.359-.154-.045-.314.044-.358.197l-.316 1.083c-.087.296.018.605.268.786.128.093.276.14.424.14.141 0 .283-.042.407-.127L20.708 21c.05-.033.113-.033.163 0l2.24 1.527c.255.174.581.169.831-.013.25-.181.356-.49.269-.786l-.76-2.602c-.017-.058.003-.118.05-.155l2.145-1.659c.244-.189.34-.5.245-.794M8.702 4.839c0-2.35 1.912-4.261 4.261-4.261 2.35 0 4.262 1.911 4.262 4.26 0 1.499-.778 2.818-1.95 3.578l-.006.003c-.431.278-.904.474-1.397.583h-.003c-.096.021-.193.039-.291.053l-.024.003c-.082.012-.165.02-.249.027l-.065.005c-.092.006-.184.01-.277.01-.092 0-.184-.004-.276-.01l-.065-.005c-.084-.007-.167-.015-.25-.027l-.022-.003c-.099-.014-.196-.032-.293-.053h-.001c-.494-.108-.967-.305-1.398-.583l-.005-.003c-1.173-.76-1.95-2.079-1.95-3.577m-3.114 7.56c.05.033.105.049.16.049.093 0 .185-.045.24-.128 1.067-1.591 2.65-2.774 4.468-3.343.371.225.775.401 1.201.52l.01.003c.202.056.408.1.619.13l.054.007c.081.01.163.019.246.025l.076.006c.1.006.2.01.3.01.102 0 .202-.004.301-.01l.076-.006c.083-.006.164-.015.246-.025l.055-.007c.21-.03.416-.074.617-.13l.011-.002c.427-.12.83-.296 1.2-.521 1.87.579 3.334 1.625 4.353 3.11.09.132.27.165.402.075.131-.09.165-.27.075-.402-1.02-1.484-2.448-2.557-4.25-3.197 1.07-.889 1.753-2.228 1.753-3.724C17.802 2.17 15.632 0 12.963 0c-2.668 0-4.838 2.17-4.838 4.839 0 1.497.683 2.838 1.755 3.726-1.773.65-3.31 1.852-4.37 3.433-.09.132-.054.312.079.4" transform="translate(-611.000000, -1168.000000) translate(420.000000, 1025.000000) translate(0.000000, 87.000000) translate(180.000000, 45.000000) translate(11.000000, 11.000000) translate(3.000000, 3.000000)"/>
                        </g>
                    </g>
                </g>
            </g>
        </g>
    </g>
</svg>
