<svg xmlns="http://www.w3.org/2000/svg" xmlns:xlink="http://www.w3.org/1999/xlink" width="32" height="32" viewBox="0 0 32 32">
    <defs>
        <path id="veqt2e72la" d="M0 0.023L21.977 0.023 21.977 22 0 22z"/>
    </defs>
    <g fill="none" fill-rule="evenodd">
        <g>
            <g>
                <g>
                    <g>
                        <g>
                            <g transform="translate(-791.000000, -1168.000000) translate(420.000000, 1025.000000) translate(0.000000, 87.000000) translate(360.000000, 45.000000) translate(11.000000, 11.000000) translate(5.000000, 5.000000) translate(0.000000, 0.023739)">
                                <mask id="7v8cze22ob" fill="#fff">
                                    <use xlink:href="#veqt2e72la"/>
                                </mask>
                                <path fill="#000" d="M10.988.681C5.292.681.658 5.315.658 11.011c0 5.697 4.634 10.33 10.33 10.33s10.33-4.633 10.33-10.33c0-5.696-4.634-10.33-10.33-10.33m0 21.319c-2.935 0-5.694-1.143-7.77-3.218C1.143 16.706 0 13.947 0 11.012c0-2.936 1.143-5.695 3.218-7.77C5.294 1.166 8.053.023 10.988.023c2.935 0 5.695 1.143 7.77 3.219 2.076 2.075 3.219 4.834 3.219 7.77 0 2.935-1.143 5.694-3.219 7.77C16.683 20.857 13.923 22 10.988 22" mask="url(#7v8cze22ob)"/>
                            </g>
                            <path fill="#000" d="M7.589 13.345l4.393 1.428 2.716-3.738-2.716-3.737L7.59 8.725v4.62zm4.52 2.144c-.035 0-.07-.005-.103-.016l-4.848-1.576c-.136-.044-.227-.17-.227-.313V8.486c0-.142.091-.269.227-.313l4.848-1.575c.136-.044.285.004.368.12l2.997 4.124c.084.115.084.271 0 .387l-2.997 4.124c-.063.087-.163.136-.266.136z" transform="translate(-791.000000, -1168.000000) translate(420.000000, 1025.000000) translate(0.000000, 87.000000) translate(360.000000, 45.000000) translate(11.000000, 11.000000) translate(5.000000, 5.000000)"/>
                            <path fill="#000" d="M12.174 7.33c-.04 0-.08-.007-.12-.022-.17-.066-.253-.257-.187-.426l1.611-4.12c.067-.169.257-.252.427-.186.169.066.252.257.186.426l-1.61 4.12c-.052.13-.176.209-.307.209" transform="translate(-791.000000, -1168.000000) translate(420.000000, 1025.000000) translate(0.000000, 87.000000) translate(360.000000, 45.000000) translate(11.000000, 11.000000) translate(5.000000, 5.000000)"/>
                            <path fill="#222" d="M14.53 1.307c-.182 0-.33-.147-.33-.328 0-.183.148-.33.33-.33.181 0 .328.147.328.33 0 .18-.147.328-.329.328" transform="translate(-791.000000, -1168.000000) translate(420.000000, 1025.000000) translate(0.000000, 87.000000) translate(360.000000, 45.000000) translate(11.000000, 11.000000) translate(5.000000, 5.000000)"/>
                            <path fill="#000" d="M13.809 19.579c-.132 0-.256-.08-.307-.21l-1.635-4.18c-.066-.17.018-.36.187-.426.17-.066.36.017.426.186l1.635 4.18c.066.17-.017.36-.186.427-.04.015-.08.023-.12.023M14.53 21.421c-.182 0-.33-.147-.33-.328 0-.183.148-.33.33-.33.181 0 .328.147.328.33 0 .18-.147.328-.329.328M7.275 8.81c-.064 0-.128-.017-.184-.056L3.652 6.43c-.15-.102-.19-.306-.088-.457.102-.15.307-.19.457-.088L7.46 8.209c.151.102.19.307.089.457-.064.094-.168.145-.273.145M2.178 5.364c-.182 0-.33-.148-.33-.33 0-.181.148-.329.33-.329.182 0 .329.148.329.33 0 .181-.147.329-.33.329M3.82 16.238c-.106 0-.21-.05-.274-.144-.101-.15-.062-.355.089-.457l3.44-2.327c.151-.102.355-.062.457.088.102.15.063.355-.088.457l-3.44 2.327c-.057.038-.121.056-.185.056M19.735 11.364h-4.63c-.182 0-.33-.147-.33-.329 0-.181.148-.329.33-.329h4.63c.182 0 .33.148.33.33 0 .181-.148.328-.33.328" transform="translate(-791.000000, -1168.000000) translate(420.000000, 1025.000000) translate(0.000000, 87.000000) translate(360.000000, 45.000000) translate(11.000000, 11.000000) translate(5.000000, 5.000000)"/>
                            <path fill="#000" d="M21.053 14.768c-.132 0-.256-.08-.307-.21l-1.318-3.404c-.029-.075-.03-.158 0-.234l1.317-3.52c.063-.17.253-.256.423-.192.17.064.257.253.193.424l-1.274 3.401 1.273 3.288c.065.169-.019.36-.188.425-.04.015-.08.022-.119.022M4.663 19.846c-.15 0-.285-.102-.32-.254l-.828-3.537-2.882-2.03c-.149-.104-.184-.309-.08-.458.105-.148.31-.184.459-.08l2.984 2.102c.066.046.113.115.131.194l.856 3.659c.042.177-.068.354-.245.395-.025.006-.05.009-.075.009M.886 8.563c-.104 0-.205-.048-.27-.14-.104-.148-.068-.353.08-.458l2.882-2.029.828-3.537c.041-.177.219-.287.395-.245.177.041.287.218.246.395L4.19 6.21c-.018.078-.064.147-.13.193L1.075 8.503c-.058.04-.124.06-.19.06M13.793 3.218c-.077 0-.152-.027-.211-.076L10.778.805c-.14-.116-.159-.324-.042-.463.116-.14.323-.159.463-.042l2.708 2.256 3.63-.12h.011c.177 0 .323.14.33.318.005.182-.137.334-.319.34l-3.756.124h-.01M10.989 21.915c-.095 0-.188-.04-.253-.119-.117-.14-.098-.347.042-.463l2.804-2.337c.062-.051.14-.08.221-.076l3.756.124c.182.006.324.158.318.34-.006.181-.158.325-.34.318l-3.63-.12-2.708 2.256c-.062.052-.136.077-.21.077" transform="translate(-791.000000, -1168.000000) translate(420.000000, 1025.000000) translate(0.000000, 87.000000) translate(360.000000, 45.000000) translate(11.000000, 11.000000) translate(5.000000, 5.000000)"/>
                        </g>
                    </g>
                </g>
            </g>
        </g>
    </g>
</svg>
