<svg xmlns="http://www.w3.org/2000/svg" width="32" height="32" viewBox="0 0 32 32">
    <g fill="none" fill-rule="evenodd">
        <g fill="#000" fill-rule="nonzero">
            <g>
                <g>
                    <g>
                        <path d="M15.273 0H9.455c-.402 0-.728.326-.728.727 0 .402.326.728.728.728h4.062L6.03 8.94c-.284.284-.284.745 0 1.029.142.142.328.213.514.213.187 0 .373-.071.515-.213l7.485-7.486v4.062c0 .402.326.728.728.728.401 0 .727-.326.727-.728V.727C16 .326 15.674 0 15.273 0z" transform="translate(-969.000000, -238.000000) translate(395.000000, 211.000000) translate(574.000000, 27.000000) translate(10.000000, 6.000000)"/>
                        <path d="M12.364 7.273c-.402 0-.728.325-.728.727v6.545H1.455V4.364H8c.402 0 .727-.326.727-.728 0-.401-.325-.727-.727-.727H.727c-.401 0-.727.326-.727.727v11.637c0 .401.326.727.727.727h11.637c.401 0 .727-.326.727-.727V8c0-.402-.326-.727-.727-.727z" transform="translate(-969.000000, -238.000000) translate(395.000000, 211.000000) translate(574.000000, 27.000000) translate(10.000000, 6.000000)"/>
                    </g>
                </g>
            </g>
        </g>
    </g>
</svg>
