<svg xmlns="http://www.w3.org/2000/svg" width="22" height="22" viewBox="0 0 22 22">
    <g fill="none" fill-rule="evenodd" stroke-linecap="round" stroke-linejoin="round">
        <g stroke="#F40058">
            <g>
                <g>
                    <g>
                        <g>
                            <path d="M10.327 16.836H1.09c-.602 0-1.09-.488-1.09-1.09V7.933c0-.602.488-1.09 1.09-1.09h9.237c.602 0 1.09.488 1.09 1.09v7.813c0 .602-.488 1.09-1.09 1.09zM5.708 0h0C3.683 0 2.042 1.642 2.042 3.667v3.176h7.333V3.667C9.375 1.642 7.734 0 5.708 0z" transform="translate(-1171.000000, -176.000000) translate(686.000000, 170.000000) translate(479.000000, 0.000000) translate(6.000000, 6.000000) translate(5.500000, 2.750000)"/>
                            <path d="M7.021 10.824c0-.725-.588-1.312-1.313-1.312-.724 0-1.312.587-1.312 1.312 0 .725.588 1.313 1.312 1.313.725 0 1.313-.588 1.313-1.313zM5.749 12.137L5.749 14.167" transform="translate(-1171.000000, -176.000000) translate(686.000000, 170.000000) translate(479.000000, 0.000000) translate(6.000000, 6.000000) translate(5.500000, 2.750000)"/>
                        </g>
                    </g>
                </g>
            </g>
        </g>
    </g>
</svg>
