<svg xmlns="http://www.w3.org/2000/svg" width="21" height="21" viewBox="0 0 21 21">
    <g fill="none" fill-rule="evenodd">
        <g fill="#000" fill-rule="nonzero" stroke="#000" stroke-width=".5">
            <g>
                <g>
                    <g>
                        <path d="M6.339 6.622c.222 0 .402.18.402.403 0 .222-.18.403-.402.403H6.07c-.37 0-.67.3-.67.67v7.25c0 .37.3.67.67.67h6.712c.37 0 .671-.3.671-.67v-.27c0-.221.18-.402.403-.402.222 0 .403.18.403.403v.268c0 .815-.663 1.477-1.477 1.477H6.07c-.814 0-1.476-.662-1.476-1.477V8.1c0-.815.662-1.477 1.476-1.477h.269zm8.59-2.684c.815 0 1.477.662 1.477 1.476v6.712c0 .814-.662 1.476-1.476 1.476H9.292c-.815 0-1.477-.662-1.477-1.476V5.414c0-.814.662-1.476 1.477-1.476h5.638zm0 .805H9.293c-.37 0-.671.301-.671.671v6.712c0 .37.301.67.67.67h5.639c.37 0 .67-.3.67-.67V5.414c0-.37-.3-.671-.67-.671z" transform="translate(-1235.000000, -372.000000) translate(140.000000, 142.000000) translate(856.000000, 221.000000) translate(239.000000, 9.000000)"/>
                    </g>
                </g>
            </g>
        </g>
    </g>
</svg>
