<?xml version="1.0" encoding="utf-8"?>
<!-- Generator: Adobe Illustrator 19.0.0, SVG Export Plug-In . SVG Version: 6.00 Build 0)  -->
<svg version="1.1" id="Layer_1" xmlns="http://www.w3.org/2000/svg" xmlns:xlink="http://www.w3.org/1999/xlink" x="0px" y="0px"
	 viewBox="220 180.5 500 184" style="enable-background:new 220 180.5 500 184;" xml:space="preserve">
<style type="text/css">
	.st0{fill:#FFFFFF;}
</style>
<g>
	<path class="st0" d="M344.2,293.3c-11.9,16.9-31.7,27.9-55.4,27.9c-38.8,0-68.7-31.6-68.7-70.2c0-38.8,29.9-70.4,68.7-70.4
		c23.2,0,43,10.3,54.9,27.1l-20.2,14.5c-7.9-10.3-20.2-17.5-34.7-17.5c-24.8,0-43.4,20.9-43.4,46.3c0,25.7,18.6,46.1,43.4,46.1
		c14.9,0,27.5-7.4,35.4-18.5L344.2,293.3z"/>
	<path class="st0" d="M446.2,306.8c-2.7,4.5-7.1,2.7-7.1-2.7v-0.9v-57.3h-12.2v-19.6h-59v19.6h47.4v21.8c-5.9-3.8-17.8-6.2-23.6-6.2
		c-29.5,0-40,12.9-40,29.2c0,19.1,14.3,30.4,35.9,30.4c7.5,0,20.8-3.2,27.7-11.5c0,7.1,15.6,21.6,35.4,0.8
		C450.7,310.4,446.6,307.2,446.2,306.8z M415.1,288.9c-5.9,7.6-18.6,10.9-25.8,10.9c-8.9,0-13.7-5.2-13.7-10.7
		c0-4,2.2-10.3,16.4-10.3c4.5,0,17,1.4,23,5.8L415.1,288.9L415.1,288.9z"/>
	<path class="st0" d="M482,319.1h-24.2v-92.9H482v21.9c4.8-16.9,15.6-23.9,26.1-23.9c6.5,0,11.5,1.2,15.3,3.4l-4.2,21.9
		c-5.7-2.6-11.7-2.6-14.1-2.6c-16.4,0-23.2,14.7-23.2,39.4L482,319.1L482,319.1z"/>
	<path class="st0" d="M555.4,319.1h-24.2v-92.9h24.2V240c5.4-10.1,16.6-15.7,27.5-15.7c21.6,0,34.5,13.5,34.5,40v54.9h-24.2v-50.5
		c0-13.5-7.1-20.7-17.6-20.7c-11.1,0-20.2,5.6-20.2,21.7L555.4,319.1L555.4,319.1z"/>
	<path class="st0" d="M662.8,364.5h-25.5l21.2-52.5l-36-85.7h25.8l23,57.9l23.2-57.9H720L662.8,364.5z"/>
</g>
</svg>
