<svg xmlns="http://www.w3.org/2000/svg" width="24" height="25" viewBox="0 0 24 25">
    <g fill="none" fill-rule="evenodd">
        <g stroke="#FFF" stroke-width="1.5">
            <g>
                <g>
                    <g>
                        <path d="M9.267 16.35c0 .993-.807 1.8-1.8 1.8s-1.8-.807-1.8-1.8M13.833 15.441H.873c-.094 0-.182-.05-.23-.134-.05-.083-.053-.187-.01-.273l1.026-2.06c.22-.44.336-.935.336-1.43V7.196c0-2.616 1.75-4.857 4.194-5.416v-.324c0-.56.44-1.016.98-1.016h.368c.54 0 .98.456.98 1.016v.324c2.444.559 4.194 2.8 4.194 5.416v4.346c0 .496.116.991.336 1.432l1.026 2.059c.043.086.04.19-.01.273-.048.083-.136.134-.23.134z" transform="translate(-287.000000, -27.000000) translate(25.000000, 22.000000) translate(262.000000, 6.000000) translate(4.500000, 3.000000)"/>
                    </g>
                </g>
            </g>
        </g>
    </g>
</svg>
