<svg xmlns="http://www.w3.org/2000/svg" width="24" height="24" viewBox="0 0 24 24">
    <g fill="none" fill-rule="evenodd">
        <g stroke="#000">
            <g>
                <g>
                    <g>
                        <g>
                            <g>
                                <path d="M9.267 16.35c0 .993-.807 1.8-1.8 1.8s-1.8-.807-1.8-1.8M14.412 15.882H.294c-.103 0-.198-.053-.251-.142-.053-.088-.057-.197-.01-.29l1.118-2.18c.24-.466.366-.99.366-1.515V7.153c0-2.77 1.906-5.143 4.568-5.734v-.344C6.085.482 6.564 0 7.153 0h.4c.59 0 1.068.482 1.068 1.075v.344c2.662.591 4.568 2.964 4.568 5.734v4.602c0 .525.127 1.05.366 1.516l1.118 2.18c.047.092.043.201-.01.29-.053.088-.149.141-.251.141z" transform="translate(-1227.000000, -965.000000) translate(80.000000, 853.000000) translate(0.000000, 73.000000) translate(1140.000000, 32.000000) translate(7.000000, 7.000000) translate(4.500000, 3.000000)"/>
                            </g>
                        </g>
                    </g>
                </g>
            </g>
        </g>
    </g>
</svg>
