<svg xmlns="http://www.w3.org/2000/svg" width="32" height="32" viewBox="0 0 32 32">
    <g fill="none" fill-rule="evenodd">
        <g fill="#000">
            <g>
                <g>
                    <g>
                        <path d="M26.421 7.316c-.833.493-1.756.852-2.738 1.045C22.897 7.522 21.78 7 20.54 7c-2.38 0-4.31 1.93-4.31 4.309 0 .337.04.665.113.982-3.58-.18-6.755-1.897-8.88-4.504-.371.636-.582 1.376-.582 2.166 0 1.495.76 2.814 1.916 3.587-.706-.023-1.37-.219-1.952-.54v.053c0 2.086 1.486 3.828 3.456 4.225-.36.096-.742.151-1.135.151-.279 0-.548-.027-.811-.077.548 1.71 2.139 2.954 4.022 2.992-1.472 1.155-3.33 1.843-5.348 1.843-.35 0-.692-.022-1.029-.06 1.907 1.222 4.171 1.936 6.604 1.936 7.925 0 12.258-6.564 12.258-12.26l-.014-.556c.843-.606 1.576-1.363 2.152-2.227-.772.341-1.601.574-2.473.677.889-.533 1.571-1.377 1.894-2.38" transform="translate(-428.000000, -938.000000) translate(420.000000, 160.000000) translate(0.000000, 685.000000) translate(0.000000, 82.000000) translate(8.000000, 11.000000)"/>
                    </g>
                </g>
            </g>
        </g>
    </g>
</svg>
