<svg xmlns="http://www.w3.org/2000/svg" width="32" height="32" viewBox="0 0 32 32">
    <g fill="none" fill-rule="evenodd">
        <g fill="#000" fill-rule="nonzero">
            <g>
                <g>
                    <g>
                        <g>
                            <path d="M15.935 12.219h-8.87c-.126 0-.228.104-.225.23.027 1.04.098 2.033.205 2.972.015.135.146.226.277.193 1.357-.346 2.754-.52 4.178-.52s2.821.174 4.178.52c.131.033.262-.058.277-.193.107-.94.178-1.933.205-2.972.003-.126-.099-.23-.225-.23zM15.955 7.58c-.015-.136-.146-.227-.277-.194-1.357.346-2.754.52-4.178.52s-2.821-.174-4.178-.52c-.131-.033-.262.058-.277.193-.107.94-.178 1.933-.205 2.972-.003.126.099.23.225.23h8.87c.126 0 .228-.104.225-.23-.027-1.04-.098-2.033-.205-2.972zM15.678 5.684c-.403-2.227-1.02-4.054-1.732-5.345-.031-.057-.087-.098-.151-.11C13.047.077 12.28 0 11.5 0S9.953.078 9.205.228c-.064.013-.12.054-.151.111-.712 1.291-1.33 3.118-1.732 5.345-.02.114.05.225.162.255 1.28.345 2.627.53 4.016.53 1.389 0 2.735-.185 4.016-.53.112-.03.182-.141.162-.255zM16.28 1.035c-.183-.084-.374.099-.301.287l.004.01c.437 1.136.792 2.427 1.058 3.822.026.14.175.22.306.165.884-.363 1.727-.805 2.521-1.318.118-.076.139-.24.043-.343-.091-.098-.184-.194-.28-.29-.985-.986-2.12-1.77-3.35-2.333zM17.822 10.781h4.914c.131 0 .234-.113.224-.244-.16-1.928-.794-3.758-1.847-5.354-.07-.105-.21-.133-.313-.064-.859.567-1.769 1.055-2.725 1.46-.196.083-.394.162-.592.237-.098.037-.157.135-.144.238.141 1.128.229 2.304.259 3.508.003.122.102.22.224.22zM7.322 17.316c.403 2.227 1.02 4.054 1.732 5.345.031.057.087.098.151.11.748.151 1.515.229 2.295.229s1.547-.078 2.295-.228c.064-.013.12-.054.151-.111.712-1.291 1.33-3.118 1.732-5.345.02-.114-.05-.225-.162-.255-1.28-.345-2.627-.53-4.016-.53-1.389 0-2.735.185-4.016.53-.112.03-.182.141-.162.255zM4.925 16.421c.196-.083.394-.162.592-.237.098-.037.157-.135.144-.238-.141-1.128-.229-2.304-.259-3.508-.003-.122-.102-.22-.224-.22H.264c-.131 0-.234.114-.224.245.16 1.928.794 3.758 1.847 5.354.07.105.21.133.313.064.859-.567 1.769-1.055 2.725-1.46zM19.868 19c-.793-.514-1.637-.956-2.52-1.32-.132-.053-.28.026-.307.166-.266 1.395-.621 2.686-1.058 3.823l-.004.01c-.073.187.118.37.301.286 1.232-.563 2.366-1.347 3.352-2.333.095-.095.188-.192.28-.29.095-.103.074-.267-.044-.343zM17.598 12.438c-.03 1.204-.118 2.38-.26 3.508-.012.103.047.201.145.238.198.075.396.154.592.237.956.405 1.866.893 2.725 1.46.104.069.244.04.313-.064 1.053-1.596 1.688-3.426 1.847-5.354.01-.131-.093-.244-.224-.244h-4.914c-.122 0-.221.097-.224.22zM3.132 4c.793.514 1.637.956 2.52 1.32.132.053.28-.026.307-.166.266-1.395.621-2.686 1.058-3.823l.004-.01c.073-.187-.118-.37-.301-.286-1.232.563-2.366 1.347-3.352 2.333-.095.095-.188.192-.28.29-.095.103-.074.267.044.343zM5.397 10.781c.025-1.28.114-2.531.264-3.727.013-.103-.046-.201-.144-.238-.198-.075-.396-.154-.592-.237-.956-.405-1.866-.893-2.725-1.46-.104-.07-.244-.04-.313.064C.834 6.779.2 8.609.04 10.537c-.01.131.093.244.224.244h5.133zM6.72 21.965c.183.084.374-.099.301-.287l-.004-.01c-.437-1.136-.792-2.427-1.058-3.822-.026-.14-.175-.22-.306-.165-.884.363-1.727.805-2.521 1.318-.118.076-.139.24-.043.343.091.098.184.194.28.29.985.986 2.12 1.77 3.35 2.333z" transform="translate(-428.000000, -1154.000000) translate(420.000000, 160.000000) translate(0.000000, 881.000000) translate(0.000000, 77.000000) translate(8.000000, 36.000000) translate(5.000000, 5.000000)"/>
                        </g>
                    </g>
                </g>
            </g>
        </g>
    </g>
</svg>
