<svg xmlns="http://www.w3.org/2000/svg" width="32" height="32" viewBox="0 0 32 32">
    <g fill="none" fill-rule="evenodd">
        <g fill="#000">
            <g>
                <g>
                    <g>
                        <path d="M21.375 9.959c-.367 0-.666.299-.666.667 0 .368.299.665.666.665.369 0 .666-.297.666-.665 0-.368-.297-.667-.666-.667zM16 19.125c-1.723 0-3.125-1.402-3.125-3.125 0-1.724 1.402-3.125 3.125-3.125s3.125 1.401 3.125 3.125c0 1.723-1.402 3.125-3.125 3.125zM16 11c-2.761 0-5 2.24-5 5 0 2.761 2.239 5 5 5s5-2.239 5-5c0-2.76-2.239-5-5-5zm8.125 8.75c0 2.414-1.962 4.375-4.375 4.375h-7.5c-2.412 0-4.375-1.961-4.375-4.375v-7.5c0-2.412 1.963-4.375 4.375-4.375h7.5c2.413 0 4.375 1.963 4.375 4.375v7.5zM19.75 6h-7.5C8.799 6 6 8.799 6 12.25v7.5c0 3.453 2.799 6.249 6.25 6.249h7.5c3.451 0 6.25-2.796 6.25-6.249v-7.5C26 8.799 23.201 6 19.75 6z" transform="translate(-659.000000, -937.000000) translate(420.000000, 160.000000) translate(0.000000, 685.000000) translate(230.000000, 82.000000) translate(9.000000, 10.000000)"/>
                    </g>
                </g>
            </g>
        </g>
    </g>
</svg>
