<svg xmlns="http://www.w3.org/2000/svg" width="32" height="32" viewBox="0 0 32 32">
    <g fill="none" fill-rule="evenodd">
        <g fill="#000" fill-rule="nonzero">
            <g>
                <g>
                    <g>
                        <g>
                            <path d="M16.737 9c1.193.006 6.523.051 7.98.45.899.242 1.608.951 1.85 1.85.378 1.379.426 4.01.432 4.823v.337c-.003.552-.04 3.476-.432 4.96-.242.9-.951 1.609-1.85 1.85-1.42.374-6.516.425-7.88.432l-.183.001h-.491c-1.36-.008-6.446-.061-7.88-.45-.9-.242-1.608-.95-1.85-1.85-.377-1.417-.426-4.197-.432-4.892v-.318c.006-.691.055-3.461.431-4.892.242-.9.969-1.626 1.851-1.868C9.74 9.049 15.07 9.006 16.262 9zm-2.33 4.203V19.5l5.466-3.148-5.466-3.149z" transform="translate(-428.000000, -1352.000000) translate(420.000000, 160.000000) translate(0.000000, 881.000000) translate(0.000000, 77.000000) translate(0.000000, 198.000000) translate(8.000000, 36.000000)"/>
                        </g>
                    </g>
                </g>
            </g>
        </g>
    </g>
</svg>
