<svg xmlns="http://www.w3.org/2000/svg" width="32" height="32" viewBox="0 0 32 32">
    <g fill="none" fill-rule="evenodd">
        <g fill="#000" fill-rule="nonzero">
            <g>
                <g>
                    <g>
                        <g>
                            <g>
                                <path d="M20.824 7.565c-.876-3.009-1.863-4.563-1.88-4.591-.055-.069-1.45-1.739-4.814-2.974l-.445 1.21c1.6.588 2.736 1.305 3.36 1.768C15.18 2.42 12.964 2.08 11 2.08c-1.964 0-4.181.341-6.045.898.624-.463 1.76-1.18 3.36-1.768L7.87 0C4.507 1.235 3.112 2.905 3.055 2.974c-.016.028-1.003 1.582-1.879 4.59-.844 2.9-1.164 6.99-1.176 7.154.075.118 1.805 3.07 6.518 3.07l1.195-1.73c-1.339-.355-2.615-.928-3.783-1.705l.714-1.074c1.885 1.255 4.083 1.918 6.356 1.918 2.273 0 4.471-.663 6.356-1.918l.714 1.074c-1.168.777-2.444 1.35-3.783 1.706l1.195 1.73c4.713 0 6.443-2.953 6.518-3.07-.012-.165-.332-4.255-1.176-7.154zM8.02 10.937H6.73V8.79h1.29v2.148zm7.25 0h-1.29V8.79h1.29v2.148z" transform="translate(-428.000000, -1253.000000) translate(420.000000, 160.000000) translate(0.000000, 881.000000) translate(0.000000, 77.000000) translate(0.000000, 99.000000) translate(8.000000, 36.000000) translate(5.000000, 7.000000)"/>
                            </g>
                        </g>
                    </g>
                </g>
            </g>
        </g>
    </g>
</svg>
