<?xml version="1.0" encoding="utf-8"?>
<!-- Generator: Adobe Illustrator 19.0.0, SVG Export Plug-In . SVG Version: 6.00 Build 0)  -->
<svg version="1.1" id="Layer_1" xmlns="http://www.w3.org/2000/svg" xmlns:xlink="http://www.w3.org/1999/xlink" x="0px" y="0px"
	 viewBox="-235.2 243.5 16.3 14.7" style="enable-background:new -235.2 243.5 16.3 14.7;" xml:space="preserve">
<style type="text/css">
	.st0{fill:#FF2A44;stroke:#FF2A44;stroke-width:1.2;}
</style>
<g>
	<g>
		<g>
			<g>
				<g>
					<g>
						<path class="st0" d="M-220.6,245.4c-0.8-0.9-1.9-1.3-3-1.3c-0.9,0-1.7,0.3-2.4,0.8c-0.4,0.3-0.7,0.6-1,1c-0.3-0.4-0.6-0.7-1-1
							c-0.7-0.5-1.5-0.8-2.4-0.8c-1.2,0-2.2,0.5-3,1.3c-0.8,0.8-1.2,2-1.2,3.2c0,1.3,0.5,2.4,1.5,3.7c0.9,1.1,2.2,2.2,3.8,3.5
							c0.5,0.4,1.1,0.9,1.7,1.5c0.2,0.1,0.4,0.2,0.6,0.2c0.2,0,0.4-0.1,0.6-0.2c0.6-0.5,1.2-1,1.7-1.5c1.5-1.3,2.8-2.4,3.8-3.5
							c1-1.2,1.5-2.4,1.5-3.7C-219.4,247.4-219.9,246.3-220.6,245.4"/>
					</g>
				</g>
			</g>
		</g>
	</g>
</g>
</svg>
