<?xml version="1.0" encoding="utf-8"?>
<!-- Generator: Adobe Illustrator 24.0.1, SVG Export Plug-In . SVG Version: 6.00 Build 0)  -->
<svg version="1.1" id="Layer_1" xmlns="http://www.w3.org/2000/svg" xmlns:xlink="http://www.w3.org/1999/xlink" x="0px" y="0px"
	 viewBox="0 0 26 26" style="enable-background:new 0 0 26 26;" xml:space="preserve">
<style type="text/css">
	.st0{fill-rule:evenodd;clip-rule:evenodd;fill:none;stroke:#4267B2;stroke-width:0.5;}
	.st1{fill-rule:evenodd;clip-rule:evenodd;fill:#4267B2;}
</style>
<g>
	<g>
		<g>
			<g>
				
					<g transform="translate(-382.000000, -319.000000) translate(140.000000, 142.000000) translate(180.000000, 50.000000) translate(0.000000, 127.000000) translate(62.000000, 0.000000)">
					<path class="st0" d="M10.3,0.3h5.5c5.5,0,10,4.5,10,10v5.5c0,5.5-4.5,10-10,10h-5.5c-5.5,0-10-4.5-10-10v-5.5
						C0.3,4.7,4.7,0.3,10.3,0.3z"/>
					<path class="st1" d="M11.8,9v1.8h-1.2V13h1.2v6.5h2.5V13H16c0,0,0.2-1.1,0.2-2.2h-1.9V9.3c0-0.2,0.3-0.5,0.5-0.5h1.4V6.5h-1.9
						C11.7,6.5,11.8,8.7,11.8,9"/>
				</g>
			</g>
		</g>
	</g>
</g>
</svg>
