<?xml version="1.0" encoding="utf-8"?>
<!-- Generator: Adobe Illustrator 24.0.1, SVG Export Plug-In . SVG Version: 6.00 Build 0)  -->
<svg version="1.1" id="Layer_1" xmlns="http://www.w3.org/2000/svg" xmlns:xlink="http://www.w3.org/1999/xlink" x="0px" y="0px"
	 viewBox="0 0 26 26" style="enable-background:new 0 0 26 26;" xml:space="preserve">
<style type="text/css">
	.st0{fill-rule:evenodd;clip-rule:evenodd;fill:none;stroke:#4A90E2;stroke-width:0.5;}
	.st1{fill:#4A90E2;}
</style>
<g>
	<g>
		<g>
			<g>
				
					<g transform="translate(-320.000000, -319.000000) translate(140.000000, 142.000000) translate(180.000000, 50.000000) translate(0.000000, 127.000000)">
					<path class="st0" d="M10.3,0.3h5.5c5.5,0,10,4.5,10,10v5.5c0,5.5-4.5,10-10,10h-5.5c-5.5,0-10-4.5-10-10v-5.5
						C0.3,4.7,4.7,0.3,10.3,0.3z"/>
					<g>
						<path class="st1" d="M13,16.2c0.9,0,1.7,0.1,2.6,0.3c0.1,0,0.1,0.1,0.1,0.2c-0.3,1.4-0.6,2.6-1.1,3.4c0,0-0.1,0.1-0.1,0.1
							c-0.5,0.1-1,0.1-1.5,0.1c-0.5,0-1,0-1.5-0.1c0,0-0.1,0-0.1-0.1c-0.5-0.8-0.8-2-1.1-3.4c0-0.1,0-0.1,0.1-0.2
							C11.3,16.3,12.1,16.2,13,16.2L13,16.2z M16.7,16.9L16.7,16.9c0.6,0.2,1.1,0.5,1.7,0.9c0.1,0,0.1,0.2,0,0.2
							c-0.1,0.1-0.1,0.1-0.2,0.2c-0.6,0.6-1.3,1.1-2.1,1.5c-0.1,0.1-0.2-0.1-0.2-0.2c0.3-0.7,0.5-1.5,0.7-2.4
							C16.5,16.9,16.6,16.9,16.7,16.9L16.7,16.9z M9.3,16.9c0.1,0,0.2,0,0.2,0.1c0.2,0.9,0.4,1.7,0.7,2.4c0,0.1-0.1,0.2-0.2,0.2
							c-0.8-0.4-1.5-0.9-2.1-1.5C7.8,18.1,7.7,18,7.7,18c-0.1-0.1,0-0.2,0-0.2C8.2,17.4,8.7,17.2,9.3,16.9L9.3,16.9z M9,13.5
							c0.1,0,0.1,0.1,0.1,0.1c0,0.8,0.1,1.5,0.2,2.2c0,0.1,0,0.1-0.1,0.2c-0.1,0-0.3,0.1-0.4,0.1c-0.6,0.3-1.2,0.6-1.7,0.9
							c-0.1,0-0.2,0-0.2,0c-0.7-1-1.1-2.2-1.2-3.4c0-0.1,0.1-0.2,0.1-0.2H9z M20.1,13.5c0.1,0,0.1,0.1,0.1,0.2
							c-0.1,1.2-0.5,2.4-1.2,3.4c0,0.1-0.1,0.1-0.2,0c-0.5-0.4-1.1-0.7-1.7-0.9c-0.1-0.1-0.3-0.1-0.4-0.2c-0.1,0-0.1-0.1-0.1-0.2
							c0.1-0.7,0.1-1.5,0.2-2.2c0-0.1,0.1-0.1,0.1-0.1L20.1,13.5z M15.8,13.5c0.1,0,0.1,0.1,0.1,0.1c0,0.7-0.1,1.3-0.1,1.9
							c0,0.1-0.1,0.1-0.2,0.1c-0.9-0.2-1.8-0.3-2.7-0.3c-0.9,0-1.8,0.1-2.7,0.3c-0.1,0-0.2,0-0.2-0.1c-0.1-0.6-0.1-1.2-0.1-1.9
							c0-0.1,0.1-0.1,0.1-0.1H15.8z M15.7,10.4c0.1,0,0.2,0,0.2,0.1c0.1,0.6,0.1,1.2,0.1,1.9c0,0.1-0.1,0.1-0.1,0.1h-5.6
							c-0.1,0-0.1-0.1-0.1-0.1c0-0.7,0.1-1.3,0.1-1.9c0-0.1,0.1-0.1,0.2-0.1c0.9,0.2,1.8,0.3,2.7,0.3C13.9,10.7,14.8,10.6,15.7,10.4
							z M18.9,8.9c0.1,0,0.2,0,0.2,0c0.7,1,1.1,2.2,1.2,3.4c0,0.1-0.1,0.2-0.1,0.2H17c-0.1,0-0.1-0.1-0.1-0.1c0-0.8-0.1-1.5-0.2-2.2
							c0-0.1,0-0.1,0.1-0.2c0.1,0,0.3-0.1,0.4-0.1C17.8,9.6,18.4,9.3,18.9,8.9L18.9,8.9z M6.9,9c0-0.1,0.1-0.1,0.2,0
							c0.5,0.4,1.1,0.7,1.7,0.9C8.9,9.9,9.1,10,9.2,10c0.1,0,0.1,0.1,0.1,0.2c-0.1,0.8-0.2,1.6-0.2,2.4H5.9c-0.1,0-0.2-0.1-0.1-0.2
							C5.8,11.2,6.2,10,6.9,9z M13,5.7c0.5,0,1,0.1,1.5,0.1c0,0,0.1,0,0.1,0.1c0.5,0.8,0.8,2,1.1,3.4c0,0.1,0,0.1-0.1,0.2
							c-0.8,0.2-1.7,0.3-2.6,0.3c-0.9,0-1.7-0.1-2.6-0.3c-0.1,0-0.1-0.1-0.1-0.2c0.3-1.4,0.6-2.6,1.1-3.4c0,0,0.1-0.1,0.1-0.1
							C12,5.7,12.5,5.7,13,5.7L13,5.7z M16,6.3L16,6.3c0.8,0.4,1.5,0.9,2.2,1.5C18.2,7.9,18.3,8,18.3,8c0.1,0.1,0,0.2,0,0.2
							c-0.5,0.3-1,0.6-1.6,0.8c-0.1,0-0.2,0-0.2-0.1c-0.2-0.9-0.4-1.7-0.7-2.4C15.8,6.4,15.9,6.3,16,6.3L16,6.3z M10,6.3
							c0.1-0.1,0.2,0.1,0.2,0.2l0,0C9.9,7.3,9.6,8.1,9.5,9c0,0.1-0.1,0.1-0.2,0.1C8.7,8.8,8.2,8.6,7.7,8.2c-0.1,0-0.1-0.2,0-0.2
							C7.7,8,7.8,7.9,7.8,7.8C8.5,7.2,9.2,6.7,10,6.3z"/>
					</g>
				</g>
			</g>
		</g>
	</g>
</g>
</svg>
