<?xml version="1.0" encoding="utf-8"?>
<!-- Generator: Adobe Illustrator 24.0.1, SVG Export Plug-In . SVG Version: 6.00 Build 0)  -->
<svg version="1.1" id="Layer_1" xmlns="http://www.w3.org/2000/svg" xmlns:xlink="http://www.w3.org/1999/xlink" x="0px" y="0px"
	 viewBox="0 0 26 26" style="enable-background:new 0 0 26 26;" xml:space="preserve">
<style type="text/css">
	.st0{fill-rule:evenodd;clip-rule:evenodd;fill:none;stroke:#7289DA;stroke-width:0.5;}
	.st1{fill:#7289DA;}
</style>
<g>
	<g>
		<g>
			<g>
				
					<g transform="translate(-351.000000, -319.000000) translate(140.000000, 142.000000) translate(180.000000, 50.000000) translate(0.000000, 127.000000) translate(31.000000, 0.000000)">
					<path class="st0" d="M10.3,0.3h5.5c5.5,0,10,4.5,10,10v5.5c0,5.5-4.5,10-10,10h-5.5c-5.5,0-10-4.5-10-10v-5.5
						C0.3,4.7,4.7,0.3,10.3,0.3z"/>
					<g>
						<path class="st1" d="M19.5,12.3c-0.6-2-1.2-3-1.2-3.1c0,0-1-1.2-3.2-2l-0.3,0.8C15.8,8.5,16.6,9,17,9.3
							c-1.2-0.4-2.7-0.6-4-0.6c-1.3,0-2.8,0.2-4,0.6c0.4-0.3,1.2-0.8,2.2-1.2l-0.3-0.8c-2.2,0.8-3.2,1.9-3.2,2c0,0-0.7,1.1-1.3,3.1
							c-0.6,1.9-0.8,4.6-0.8,4.8c0.1,0.1,1.2,2,4.3,2l0.8-1.1c-0.9-0.2-1.7-0.6-2.5-1.1l0.5-0.7c1.3,0.8,2.7,1.3,4.2,1.3
							c1.5,0,3-0.4,4.2-1.3l0.5,0.7c-0.8,0.5-1.6,0.9-2.5,1.1l0.8,1.1c3.1,0,4.3-2,4.3-2C20.3,17,20.1,14.3,19.5,12.3z M11,14.6
							h-0.9v-1.4H11V14.6L11,14.6z M15.8,14.6H15v-1.4h0.9V14.6L15.8,14.6z"/>
					</g>
				</g>
			</g>
		</g>
	</g>
</g>
</svg>
