<?xml version="1.0" encoding="utf-8"?>
<!-- Generator: Adobe Illustrator 24.0.1, SVG Export Plug-In . SVG Version: 6.00 Build 0)  -->
<svg version="1.1" id="Layer_1" xmlns="http://www.w3.org/2000/svg" xmlns:xlink="http://www.w3.org/1999/xlink" x="0px" y="0px"
	 viewBox="0 0 26 26" style="enable-background:new 0 0 26 26;" xml:space="preserve">
<style type="text/css">
	.st0{fill-rule:evenodd;clip-rule:evenodd;fill:none;stroke:#8A3AB9;stroke-width:0.5;}
	.st1{fill-rule:evenodd;clip-rule:evenodd;fill:#8A3AB9;}
</style>
<g>
	<g>
		<g>
			<g>
				
					<g transform="translate(-475.000000, -319.000000) translate(140.000000, 142.000000) translate(180.000000, 50.000000) translate(0.000000, 127.000000) translate(155.000000, 0.000000)">
					<path class="st0" d="M10.3,0.3h5.5c5.5,0,10,4.5,10,10v5.5c0,5.5-4.5,10-10,10h-5.5c-5.5,0-10-4.5-10-10v-5.5
						C0.3,4.7,4.7,0.3,10.3,0.3z"/>
					<path class="st1" d="M16.5,9.1c-0.2,0-0.4,0.2-0.4,0.4c0,0.2,0.2,0.4,0.4,0.4c0.2,0,0.4-0.2,0.4-0.4
						C16.9,9.3,16.7,9.1,16.5,9.1z M13,15c-1.1,0-2-0.9-2-2s0.9-2,2-2s2,0.9,2,2C15,14.1,14.1,15,13,15z M13,9.8
						c-1.8,0-3.3,1.5-3.3,3.3c0,1.8,1.5,3.3,3.3,3.3s3.3-1.5,3.3-3.3C16.3,11.2,14.8,9.8,13,9.8z M18.3,15.4c0,1.6-1.3,2.8-2.8,2.8
						h-4.9c-1.6,0-2.8-1.3-2.8-2.8v-4.9C7.7,9,9,7.7,10.6,7.7h4.9c1.6,0,2.8,1.3,2.8,2.8V15.4z M15.4,6.5h-4.9
						c-2.2,0-4.1,1.8-4.1,4.1v4.9c0,2.2,1.8,4.1,4.1,4.1h4.9c2.2,0,4.1-1.8,4.1-4.1v-4.9C19.5,8.3,17.7,6.5,15.4,6.5L15.4,6.5z"/>
				</g>
			</g>
		</g>
	</g>
</g>
</svg>
