<?xml version="1.0" encoding="utf-8"?>
<!-- Generator: Adobe Illustrator 24.0.1, SVG Export Plug-In . SVG Version: 6.00 Build 0)  -->
<svg version="1.1" id="Layer_1" xmlns="http://www.w3.org/2000/svg" xmlns:xlink="http://www.w3.org/1999/xlink" x="0px" y="0px"
	 viewBox="0 0 26 26" style="enable-background:new 0 0 26 26;" xml:space="preserve">
<style type="text/css">
	.st0{fill-rule:evenodd;clip-rule:evenodd;fill:none;stroke:#1DA1F2;stroke-width:0.5;}
	.st1{fill-rule:evenodd;clip-rule:evenodd;fill:#1DA1F2;}
</style>
<g>
	<g>
		<g>
			<g>
				
					<g transform="translate(-413.000000, -319.000000) translate(140.000000, 142.000000) translate(180.000000, 50.000000) translate(0.000000, 127.000000) translate(93.000000, 0.000000)">
					<path class="st0" d="M10.3,0.3h5.5c5.5,0,10,4.5,10,10v5.5c0,5.5-4.5,10-10,10h-5.5c-5.5,0-10-4.5-10-10v-5.5
						C0.3,4.7,4.7,0.3,10.3,0.3z"/>
					<path class="st1" d="M19.1,7.5c-0.5,0.3-1.1,0.5-1.7,0.6c-0.5-0.5-1.2-0.8-1.9-0.8c-1.5,0-2.7,1.2-2.7,2.7c0,0.2,0,0.4,0.1,0.6
						c-2.2-0.1-4.2-1.2-5.5-2.8C7.2,8.2,7,8.7,7,9.1c0,0.9,0.5,1.7,1.2,2.2c-0.4,0-0.8-0.1-1.2-0.3v0c0,1.3,0.9,2.4,2.1,2.6
						c-0.2,0.1-0.5,0.1-0.7,0.1c-0.2,0-0.3,0-0.5,0c0.3,1.1,1.3,1.8,2.5,1.9c-0.9,0.7-2.1,1.1-3.3,1.1c-0.2,0-0.4,0-0.6,0
						c1.2,0.8,2.6,1.2,4.1,1.2c4.9,0,7.6-4.1,7.6-7.6l0-0.3c0.5-0.4,1-0.8,1.3-1.4C19,8.8,18.5,8.9,18,9C18.5,8.7,18.9,8.1,19.1,7.5
						"/>
				</g>
			</g>
		</g>
	</g>
</g>
</svg>
