<?xml version="1.0" encoding="utf-8"?>
<!-- Generator: Adobe Illustrator 24.0.1, SVG Export Plug-In . SVG Version: 6.00 Build 0)  -->
<svg version="1.1" id="Layer_1" xmlns="http://www.w3.org/2000/svg" xmlns:xlink="http://www.w3.org/1999/xlink" x="0px" y="0px"
	 viewBox="0 0 26 26" style="enable-background:new 0 0 26 26;" xml:space="preserve">
<style type="text/css">
	.st0{fill-rule:evenodd;clip-rule:evenodd;fill:none;stroke:#FF0000;stroke-width:0.5;}
	.st1{fill:#FF0000;}
</style>
<g>
	<g>
		<g>
			<g>
				
					<g transform="translate(-444.000000, -319.000000) translate(140.000000, 142.000000) translate(180.000000, 50.000000) translate(0.000000, 127.000000) translate(124.000000, 0.000000)">
					<path class="st0" d="M10.3,0.3h5.5c5.5,0,10,4.5,10,10v5.5c0,5.5-4.5,10-10,10h-5.5c-5.5,0-10-4.5-10-10v-5.5
						C0.3,4.7,4.7,0.3,10.3,0.3z"/>
					<path class="st1" d="M13.2,8.1c0.8,0,4,0,4.9,0.3c0.6,0.1,1,0.6,1.1,1.1c0.2,0.8,0.3,2.5,0.3,3v0.3c0,0.4,0,2.1-0.3,3
						c-0.1,0.6-0.6,1-1.1,1.1c-0.9,0.2-4.1,0.3-4.9,0.3l-0.1,0h-0.2c-0.8,0-4,0-4.9-0.3c-0.6-0.1-1-0.6-1.1-1.1
						c-0.2-0.9-0.3-2.6-0.3-3v-0.2c0-0.4,0-2.1,0.3-3c0.2-0.6,0.6-1,1.1-1.2c0.9-0.2,4.1-0.3,4.9-0.3L13.2,8.1z M11.7,10.7v3.9
						l3.4-1.9C15.1,12.7,11.7,10.7,11.7,10.7z"/>
				</g>
			</g>
		</g>
	</g>
</g>
</svg>
