<?xml version="1.0" encoding="utf-8"?>
<!-- Generator: Adobe Illustrator 19.0.0, SVG Export Plug-In . SVG Version: 6.00 Build 0)  -->
<svg version="1.1" id="Layer_1" xmlns="http://www.w3.org/2000/svg" xmlns:xlink="http://www.w3.org/1999/xlink" x="0px" y="0px"
	 viewBox="33 174 160 154" style="enable-background:new 33 174 160 154;" xml:space="preserve">
<style type="text/css">
	.st0{fill:url(#SVGID_1_);}
</style>
<linearGradient id="SVGID_1_" gradientUnits="userSpaceOnUse" x1="32.99" y1="252.9985" x2="192.99" y2="252.9985" gradientTransform="matrix(1 0 0 -1 0 504)">
	<stop  offset="8.690000e-002" style="stop-color:#D121D6"/>
	<stop  offset="0.4946" style="stop-color:#F17124"/>
	<stop  offset="1" style="stop-color:#FEBE10"/>
</linearGradient>
<path class="st0" d="M185.7,304.6c-4.4,7.3-11.5,4.4-11.5-4.4v-1.5v-93h-19.7V174H59.1v31.7h76.7v35.4c-9.6-6.1-28.8-10-38.1-10
	c-47.7,0-64.7,21-64.7,47.5c0,31,23,49.4,58,49.4c12.2,0,33.6-5.2,44.8-18.7c0,11.5,25.2,35,57.2,1.2
	C193,310.5,186.4,305.4,185.7,304.6z M135.5,275.7c-9.6,12.3-30.1,17.8-41.6,17.8c-14.4,0-22.1-8.4-22.1-17.4
	c0-6.5,3.5-16.8,26.6-16.8c7.4,0,27.5,2.3,37.1,9.4L135.5,275.7L135.5,275.7z"/>
</svg>
